<!-- <svg version="1.1" xmlns="http://www.w3.org/2000/svg" xmlns:xlink="http://www.w3.org/1999/xlink" 
    x="0px" y="0px" viewBox="0 0 250 250" 
    style="enable-background:new 0 0 250 250;" xml:space="preserve">
            <defs> 
                    <filter id="dropShadow">
                            <feGaussianBlur in="SourceAlpha" stdDeviation="2"/>
                                <feOffset dx="0" dy="2"/>
                                <feMerge>
                                <feMergeNode/>
                                <feMergeNode in="SourceGraphic"/>
                                </feMerge>
                            </filter>
                <pattern id="imgpattern3" x="0" y="0" width="100%" height="100%" viewBox="400 400 4000 3200">
                    <image x="0" y="0" height="4000" width="6000"
                        xlink:href="https://picsum.photos/id/1015/6000/4000"/>
                </pattern> 
                <pattern id="imgpattern2" x="0" y="0" width="100%" height="100%" viewBox="400 400 1000 1000">
                        <image x="0" y="0" height="2868" width="4312"
                            xlink:href="https://picsum.photos/id/1002/4312/2868"/>
                    </pattern>       
            </defs> 
            
            <g id="Layer_1_copy_5">
            <path class="st1" d="M250,100c0-13.8-33.6-25-75-25h-25v150c0,13.8,11.2,25,25,25H75c13.8,0,25-11.2,25-25V75H75
                C42.3,75,14.6,54.1,4.3,25C1.5,17.2,0,8.8,0,0c0,13.8,33.6,25,75,25h100c32.7,0,60.4,20.9,70.7,50C248.5,82.8,250,91.2,250,100z"
                
                fill="url(#imgpattern3)"  filter="url(#dropShadow)" stroke="#321" stroke-width="0.1"/>
            </g>
            <g id="Layer_1_copy_4">
                <path class="st0" d="M230.9,150c11.9,13.3,19.1,30.8,19.1,50v50h-50v-50c0-13.8-11.2-25-25-25h-25v-50h25c13.8,0,25-11.2,25-25
                    s-11.2-25-25-25c41.4,0,75,11.2,75,25C250,119.2,242.8,136.7,230.9,150z" 
                    fill="url(#imgpattern2)" fstroke="#321" stroke-width="0.1"/>
                </g>
        </svg> -->


          <svg version="1.1" xmlns="http://www.w3.org/2000/svg" xmlns:xlink="http://www.w3.org/1999/xlink" 
                                    x="0px" y="0px" viewBox="0 0 250 250" 
                                    style="enable-background:new 0 0 250 250;" xml:space="preserve">
                                            <defs> 
                                                    <filter id="dropShadow">
                                                            <feGaussianBlur in="SourceAlpha" stdDeviation="2"/>
                                                                <feOffset dx="0" dy="2"/>
                                                                <feMerge>
                                                                <feMergeNode/>
                                                                <feMergeNode in="SourceGraphic"/>
                                                                </feMerge>
                                                            </filter>
                                                <pattern id="imgpattern3" x="0" y="0" width="100%" height="100%" viewBox="400 400 4000 3200">
                                                    <image x="0" y="0" height="4000" width="6000"
                                                        xlink:href="https://picsum.photos/id/1015/6000/4000"/>
                                                </pattern> 
                                                <pattern id="imgpattern2" x="0" y="0" width="100%" height="100%" viewBox="400 400 1000 1000">
                                                        <image x="0" y="0" height="2868" width="4312"
                                                            xlink:href="https://picsum.photos/id/1002/4312/2868"/>
                                                    </pattern>       
                                                </defs> 
                                                    
                                            <g id="Layer_1_copy_5">
                                            <path class="st1" d="M250,100c0-13.8-33.6-25-75-25h-25v150c0,13.8,11.2,25,25,25H75c13.8,0,25-11.2,25-25V75H75
                                                C42.3,75,14.6,54.1,4.3,25C1.5,17.2,0,8.8,0,0c0,13.8,33.6,25,75,25h100c32.7,0,60.4,20.9,70.7,50C248.5,82.8,250,91.2,250,100z"
                                                fill="url(#imgpattern3)"  filter="url(#dropShadow)" stroke="#321" stroke-width="0.1"/>
                                            
                                                <path class="st0" d="M230.9,150c11.9,13.3,19.1,30.8,19.1,50v50h-50v-50c0-13.8-11.2-25-25-25h-25v-50h25c13.8,0,25-11.2,25-25
                                                    s-11.2-25-25-25c41.4,0,75,11.2,75,25C250,119.2,242.8,136.7,230.9,150z" 
                                                    fill="url(#imgpattern2)" fstroke="#321" stroke-width="0.1"/>
                                                </g>
                                            
                                            
                                        </svg>