<svg version="1.1" xmlns="http://www.w3.org/2000/svg" xmlns:xlink="http://www.w3.org/1999/xlink" x="0px" y="0px" viewBox="0 0 250 250" style="enable-background:new 0 0 250 250;" xml:space="preserve">
<metadata><?xpacket begin="﻿" id="W5M0MpCehiHzreSzNTczkc9d"?>
<x:xmpmeta xmlns:x="adobe:ns:meta/" x:xmptk="Adobe XMP Core 5.6-c143 79.161210, 2017/08/11-10:28:36        ">
   <rdf:RDF xmlns:rdf="http://www.w3.org/1999/02/22-rdf-syntax-ns#">
      <rdf:Description rdf:about=""/>
   </rdf:RDF>
</x:xmpmeta>
<?xpacket end="w"?></metadata>
    
    <defs>
    <pattern id="imgpattern" x="0" y="0" width="1" height="1">
      <image height="100%"
             xlink:href="https://picsum.photos/id/1000/5626/3635"/>
    </pattern>
    <pattern id="imgpattern2" x="0" y="0" width="1" height="1">
        <image height="100%"
                xlink:href="https://picsum.photos/id/1002/4312/2868"/>
    </pattern>
    <pattern id="imgpattern3" x="0" y="0" width="1" height="1">
        <image height="100%"
            xlink:href="https://picsum.photos/id/1015/6000/4000"/>
    </pattern>    
    </defs>
<style type="text/css">
	.st0{fill:"url(#imgpattern)";stroke:#000000;stroke-width:3;stroke-miterlimit:10;}
	.st1{fill:#FFFFFF;stroke:#000000;stroke-width:3;stroke-miterlimit:10;}
</style>
<g id="Layer_1_copy_4">
	<path id="alphat" class="st0" d="M230.9,150c11.9,13.3,19.1,30.8,19.1,50v50h-50v-50c0-13.8-11.2-25-25-25h-25v-50h25c13.8,0,25-11.2,25-25
		s-11.2-25-25-25c41.4,0,75,11.2,75,25C250,119.2,242.8,136.7,230.9,150z"/>

    <path id ="alphr" class="st1" d="M250,100c0-13.8-33.6-25-75-25h-25v150c0,13.8,11.2,25,25,25H75c13.8,0,25-11.2,25-25V75H75
		C42.3,75,14.6,54.1,4.3,25C1.5,17.2,0,8.8,0,0c0,13.8,33.6,25,75,25h100c32.7,0,60.4,20.9,70.7,50C248.5,82.8,250,91.2,250,100z"/>
</g>
</svg>
